<svg width="33" height="33" viewBox="0 0 33 33" fill="none" xmlns="http://www.w3.org/2000/svg">
<path d="M16.25 0C13.0361 0 9.89429 0.953046 7.22199 2.73862C4.54969 4.52419 2.46689 7.06209 1.23696 10.0314C0.00704087 13.0007 -0.314763 16.268 0.312247 19.4202C0.939256 22.5724 2.48692 25.4679 4.75952 27.7405C7.03213 30.0131 9.9276 31.5607 13.0798 32.1878C16.232 32.8148 19.4993 32.493 22.4686 31.263C25.4379 30.0331 27.9758 27.9503 29.7614 25.278C31.547 22.6057 32.5 19.4639 32.5 16.25C32.4955 11.9416 30.7819 7.81102 27.7355 4.76454C24.689 1.71806 20.5584 0.00454972 16.25 0ZM16.25 30C13.5305 30 10.8721 29.1936 8.61092 27.6827C6.34974 26.1718 4.58737 24.0244 3.54666 21.5119C2.50596 18.9994 2.23366 16.2347 2.76421 13.5675C3.29476 10.9003 4.60432 8.45025 6.52729 6.52728C8.45026 4.60431 10.9003 3.29475 13.5675 2.7642C16.2348 2.23366 18.9994 2.50595 21.5119 3.54666C24.0244 4.58736 26.1718 6.34973 27.6827 8.61091C29.1936 10.8721 30 13.5305 30 16.25C29.9959 19.8955 28.5459 23.3904 25.9682 25.9682C23.3904 28.5459 19.8955 29.9959 16.25 30ZM19.6344 10.8844L14.2672 16.25L19.6344 21.6156C19.7505 21.7318 19.8426 21.8696 19.9055 22.0214C19.9684 22.1731 20.0007 22.3358 20.0007 22.5C20.0007 22.6642 19.9684 22.8269 19.9055 22.9786C19.8426 23.1304 19.7505 23.2682 19.6344 23.3844C19.5182 23.5005 19.3804 23.5926 19.2286 23.6555C19.0769 23.7183 18.9143 23.7507 18.75 23.7507C18.5858 23.7507 18.4231 23.7183 18.2714 23.6555C18.1196 23.5926 17.9818 23.5005 17.8656 23.3844L11.6156 17.1344C11.4994 17.0183 11.4072 16.8804 11.3443 16.7287C11.2814 16.5769 11.249 16.4143 11.249 16.25C11.249 16.0857 11.2814 15.9231 11.3443 15.7713C11.4072 15.6196 11.4994 15.4817 11.6156 15.3656L17.8656 9.11562C17.9818 8.99949 18.1196 8.90736 18.2714 8.84451C18.4231 8.78165 18.5858 8.7493 18.75 8.7493C18.9143 8.7493 19.0769 8.78165 19.2286 8.84451C19.3804 8.90736 19.5182 8.99949 19.6344 9.11562C19.7505 9.23176 19.8426 9.36964 19.9055 9.52138C19.9684 9.67312 20.0007 9.83576 20.0007 10C20.0007 10.1642 19.9684 10.3269 19.9055 10.4786C19.8426 10.6304 19.7505 10.7682 19.6344 10.8844Z" fill="#DBDBDB"/>
</svg>
