<svg width="33" height="33" viewBox="0 0 33 33" fill="none" xmlns="http://www.w3.org/2000/svg">
  <circle cx="16.5" cy="16.5" r="16" stroke="#CA3916" stroke-width="1"/>
  <path d="M19.6344 10.8844L14.2672 16.25L19.6344 21.6156C19.7505 21.7318 19.8426 21.8696 19.9055 22.0214C19.9684 22.1731 20.0007 22.3358 20.0007 22.5C20.0007 22.6642 19.9684 22.8269 19.9055 22.9786C19.8426 23.1304 19.7505 23.2682 19.6344 23.3844C19.5182 23.5005 19.3804 23.5926 19.2286 23.6555C19.0769 23.7183 18.9143 23.7507 18.75 23.7507C18.5858 23.7507 18.4231 23.7183 18.2714 23.6555C18.1196 23.5926 17.9818 23.5005 17.8656 23.3844L11.6156 17.1344C11.4994 17.0183 11.4072 16.8804 11.3443 16.7287C11.2814 16.5769 11.249 16.4143 11.249 16.25C11.249 16.0857 11.2814 15.9231 11.3443 15.7713C11.4072 15.6196 11.4994 15.4817 11.6156 15.3656L17.8656 9.11562C17.9818 8.99949 18.1196 8.90736 18.2714 8.84451C18.4231 8.78165 18.5858 8.7493 18.75 8.7493C18.9143 8.7493 19.0769 8.78165 19.2286 8.84451C19.3804 8.90736 19.5182 8.99949 19.6344 9.11562C19.7505 9.23176 19.8426 9.36964 19.9055 9.52138C19.9684 9.67312 20.0007 9.83576 20.0007 10C20.0007 10.1642 19.9684 10.3269 19.9055 10.4786C19.8426 10.6304 19.7505 10.7682 19.6344 10.8844Z" fill="#CA3916"/>
</svg>
